<?xml version="1.0" encoding="UTF-8"?>
<svg xmlns="http://www.w3.org/2000/svg" version="1.1" xmlns:xlink="http://www.w3.org/1999/xlink" viewBox="0 0 32 32">
  <defs>
    <style>
      .cls-1 {
        fill: #cfcfcf;
      }

      .cls-1, .cls-2, .cls-3, .cls-4, .cls-5, .cls-6, .cls-7 {
        fill-rule: evenodd;
      }

      .cls-2 {
        fill: url(#Linear_Gradient_60);
      }

      .cls-3 {
        fill: #0071bc;
      }

      .cls-4 {
        fill: #65c8d0;
      }

      .cls-5 {
        fill: none;
        stroke: #000;
        stroke-miterlimit: 10;
        stroke-width: 1px;
      }

      .cls-8 {
        filter: url(#drop-shadow-10);
      }

      .cls-6 {
        fill: #29abe2;
      }

      .cls-7 {
        fill: #1c8ec4;
      }
    </style>
    <filter id="drop-shadow-10" x="-1.16" y="1" width="34.32" height="30" filterUnits="userSpaceOnUse">
      <feOffset dx="0" dy="0"/>
      <feGaussianBlur result="blur" stdDeviation="1"/>
      <feFlood flood-color="#000" flood-opacity=".5"/>
      <feComposite in2="blur" operator="in"/>
      <feComposite in="SourceGraphic"/>
    </filter>
    <linearGradient id="Linear_Gradient_60" data-name="Linear Gradient 60" x1="18.47" y1="14.6" x2="12.53" y2="14.6" gradientUnits="userSpaceOnUse">
      <stop offset="0" stop-color="#666"/>
      <stop offset="1" stop-color="#c2c2c2"/>
    </linearGradient>
  </defs>
  <!-- Generator: Adobe Illustrator 28.7.2, SVG Export Plug-In . SVG Version: 1.2.0 Build 154)  -->
  <g>
    <g id="RV-logo">
      <g class="cls-8">
        <path class="cls-3" d="M26.7,16.17c-.35-.11-.7-.22-1.06-.33-.17-.05-.35-.11-.53-.16-.02,0-.04-.02-.07-.02,0,0-.02,0-.03-.01-.01,0-.04.01-.03,0,.01-.05.03-.09.04-.14.03-.09.05-.19.07-.28.08-.38.11-.75.09-1.14,0-.19-.03-.38-.06-.58-.02-.09-.03-.19-.06-.28-.01-.06-.04-.07.03-.09.05-.01.09-.03.14-.04l4.26-1.19v3.47c0,.05-.13.06-.16.07-.12.03-.25.07-.38.11-.25.07-.5.14-.75.21l-1.51.42Z"/>
        <path class="cls-2" d="M19.16,8.9c0,.95-.57,1.68-1.18,2.1-.67.47-1.33.64-2.08.64s-1.42-.17-2.08-.64c-.61-.43-1.17-1.16-1.17-2.11v10.39c1.85,1.4,4.66,1.4,6.51,0v-10.38Z"/>
        <path class="cls-3" d="M12.33,11.31c-1.62,1.04-2.5,2.9-1.27,4.69.35-.49.76-.87,1.27-1.19v-3.5Z"/>
        <path class="cls-4" d="M20.94,16c1.21-1.75.38-3.69-1.27-4.69v3.5c.51.32.92.69,1.27,1.19Z"/>
        <path class="cls-6" d="M19.31,23.9c-.58-1.06-1.16-2.12-1.74-3.18-1.18.14-2.32.13-3.49-.05-.64,1.04-1.28,2.08-1.92,3.13-1.12-.35-2.24-.7-3.36-1.05.64-1.04,1.28-2.08,1.91-3.13-.93-.45-1.71-1.04-2.42-1.8l-4.45,1.24c-.45-.81-.89-1.63-1.34-2.45l4.45-1.24c-.21-.87-.19-1.65.07-2.5-1.46-.46-2.92-.91-4.38-1.37.49-.8.98-1.61,1.48-2.41,1.46.46,2.92.92,4.38,1.37.56-.56,1.16-1.01,1.83-1.39l.57-.29v-.29s-1.62-2.95-1.62-2.95c1.14-.32,2.28-.64,3.42-.95l.11.21,1.86,2.92-1.47,1.11-.87.62v1.86c-1.68,1.07-2.52,3.01-1.19,4.79,1.11,1.5,3.19,2.09,4.86,2.09s3.75-.59,4.86-2.08c1.31-1.76.51-3.76-1.19-4.79,0-.42-.02-1.07-.06-1.78l-.02-.36-.13.12-1.45-1.62,1.21-1.57v-.03c-.04-.09-.07-.16-.1-.2.24-.39.48-.78.72-1.18,1.12.35,2.24.7,3.36,1.05-.64,1.04-1.27,2.09-1.91,3.13.93.45,1.71,1.04,2.42,1.8,1.48-.42,2.96-.83,4.45-1.24.45.81.9,1.63,1.34,2.45-1.48.41-2.97.83-4.45,1.24.09.37.13.74.13,1.12h0c0,.49-.07.93-.2,1.38,1.46.46,2.92.91,4.38,1.37-.49.8-.98,1.61-1.48,2.41-1.46-.46-2.92-.92-4.38-1.37-.75.75-1.56,1.3-2.52,1.73l1.74,3.18c-1.14.32-2.28.64-3.42.95Z"/>
        <path class="cls-4" d="M5.3,15.83l1.65-.46c-.21-.87-.19-1.65.07-2.5-1.46-.46-2.92-.91-4.38-1.37v3.49c.89.28,1.78.56,2.66.84Z"/>
        <polygon class="cls-4" points="3.84 19.06 2.5 16.61 2.5 20.11 3.84 22.56 3.84 19.06"/>
        <polygon class="cls-3" points="3.84 19.06 3.84 22.56 8.29 21.31 8.29 17.82 3.84 19.06"/>
        <path class="cls-4" d="M8.29,21.31c.27.3.56.58.88.82.51-.84,1.03-1.68,1.54-2.52-.93-.45-1.71-1.04-2.42-1.8v3.49Z"/>
        <polygon class="cls-4" points="12.16 23.8 8.79 22.75 8.79 26.24 12.16 27.3 12.16 23.8"/>
        <polygon class="cls-3" points="12.16 23.8 12.16 27.3 14.08 24.17 14.08 20.67 12.16 23.8"/>
        <path class="cls-3" d="M17.57,20.72c-1.18.14-2.32.13-3.49-.05v3.5c1.17.18,2.32.2,3.49.05v-3.49Z"/>
        <polygon class="cls-4" points="19.31 23.9 17.57 20.72 17.57 24.22 19.31 27.4 19.31 23.9"/>
        <polygon class="cls-3" points="19.31 23.9 19.31 27.4 22.73 26.44 22.73 22.95 19.31 23.9"/>
        <path class="cls-3" d="M23.51,18.03c-.75.75-1.56,1.3-2.52,1.73.48.89.97,1.77,1.45,2.66.38-.26.73-.56,1.06-.9v-3.5Z"/>
        <polygon class="cls-4" points="23.51 21.53 27.88 22.9 27.88 19.41 23.51 18.03 23.51 21.53"/>
        <polygon class="cls-3" points="27.88 19.41 27.88 22.9 29.36 20.49 29.36 17 27.88 19.41"/>
        <path class="cls-3" d="M21.29,8.88c.55.27,1.06.59,1.54.98.12-.2.25-.41.38-.61v-3.5c-.64,1.04-1.27,2.09-1.91,3.13Z"/>
        <path class="cls-4" d="M9.56,9.57c.46-.33.94-.6,1.46-.83-.58-1.06-1.16-2.12-1.74-3.18v3.5c.1.17.19.35.29.52Z"/>
        <polyline class="cls-5" points="14.58 7.41 12.69 4.6 9.27 5.55 9.27 9.05 9.56 9.57"/>
        <path class="cls-5" d="M11.01,8.74c-.97.41-1.79,1.01-2.52,1.73l-4.38-1.37-1.48,2.41v3.49l2.68.83"/>
        <path class="cls-5" d="M7.02,12.87c-.28.83-.26,1.66-.07,2.5l-4.45,1.24v3.5l1.34,2.45,4.45-1.24.88.82"/>
        <path class="cls-5" d="M10.71,19.62l-1.91,3.13v3.5l3.36,1.05,1.92-3.13c1.16.17,2.33.2,3.49.05l1.74,3.18,3.42-.96v-3.49l-1.74-3.18"/>
        <path class="cls-5" d="M25.05,13.13c.18.77.21,1.59-.04,2.51l4.34,1.36v3.5l-1.48,2.4-4.38-1.37c-.32.33-.68.63-1.06.9"/>
        <polyline class="cls-5" points="17.71 7.58 19.84 4.7 23.21 5.76 23.21 9.25 22.81 9.84"/>
        <path class="cls-5" d="M21.29,8.88c.89.43,1.7,1.01,2.42,1.8l4.45-1.24,1.34,2.45v3.47l-2.84.8"/>
        <path d="M10.48,14.32c.2.48.42.94.74,1.36.63.83,1.5,1.38,2.43,1.69.5.17,1.03.27,1.59.33.16.02.33.02.49.03.08,0,.16,0,.24,0,.03,0,.06,0,.09,0h.01s.01,0,0,0c-.01,0,.01,0,.03,0,.05,0,.1,0,.15,0,.72-.03,1.41-.14,2.05-.33.26-.07.51-.17.75-.28.28-.13.55-.28.8-.46.13-.09.25-.19.37-.3.64-.61,1.01-1.33,1.27-2.13.05.29.03.63-.02.92-.16.95-.75,1.77-1.53,2.34-.38.27-.79.48-1.22.65-1.07.43-2.41.59-3.68.44-1.25-.15-2.4-.61-3.31-1.43-.55-.5-.98-1.13-1.17-1.82-.09-.32-.14-.66-.1-1.02Z"/>
        <path class="cls-1" d="M14.7,7.07c-.87.25-1.93.9-2.06,2-.13,1.15.83,1.94,1.7,2.28.91.36,1.99.38,2.91.07.87-.29,1.9-1.01,1.9-2.14h0c0-1.07-.9-1.77-1.71-2.09-.86-.33-1.85-.37-2.73-.12Z"/>
        <path class="cls-5" d="M19.42,17.52l.06-7.91c0-1.46-1.39-2.69-3.47-2.69s-3.51,1.13-3.51,2.58v7.5"/>
      </g>
      <g>
        <path class="cls-3" d="M26.7,16.17c-.35-.11-.7-.22-1.06-.33-.17-.05-.35-.11-.53-.16-.02,0-.04-.02-.07-.02,0,0-.02,0-.03-.01-.01,0-.04.01-.03,0,.01-.05.03-.09.04-.14.03-.09.05-.19.07-.28.08-.38.11-.75.09-1.14,0-.19-.03-.38-.06-.58-.02-.09-.03-.19-.06-.28-.01-.06-.04-.07.03-.09.05-.01.09-.03.14-.04l4.26-1.19v3.47c0,.05-.13.06-.16.07-.12.03-.25.07-.38.11-.25.07-.5.14-.75.21l-1.51.42Z"/>
        <path class="cls-2" d="M19.16,8.9c0,.95-.57,1.68-1.18,2.1-.67.47-1.33.64-2.08.64s-1.42-.17-2.08-.64c-.61-.43-1.17-1.16-1.17-2.11v10.39c1.85,1.4,4.66,1.4,6.51,0v-10.38Z"/>
        <path class="cls-3" d="M12.33,11.31c-1.62,1.04-2.5,2.9-1.27,4.69.35-.49.76-.87,1.27-1.19v-3.5Z"/>
        <path class="cls-4" d="M20.94,16c1.21-1.75.38-3.69-1.27-4.69v3.5c.51.32.92.69,1.27,1.19Z"/>
        <path class="cls-7" d="M19.31,23.9c-.58-1.06-1.16-2.12-1.74-3.18-1.18.14-2.32.13-3.49-.05-.64,1.04-1.28,2.08-1.92,3.13-1.12-.35-2.24-.7-3.36-1.05.64-1.04,1.28-2.08,1.91-3.13-.93-.45-1.71-1.04-2.42-1.8l-4.45,1.24c-.45-.81-.89-1.63-1.34-2.45l4.45-1.24c-.21-.87-.19-1.65.07-2.5-1.46-.46-2.92-.91-4.38-1.37.49-.8.98-1.61,1.48-2.41,1.46.46,2.92.92,4.38,1.37.56-.56,1.16-1.01,1.83-1.39l.57-.29v-.29s-1.62-2.95-1.62-2.95c1.14-.32,2.28-.64,3.42-.95l.11.21,1.86,2.92-1.47,1.11-.87.62v1.86c-1.68,1.07-2.52,3.01-1.19,4.79,1.11,1.5,3.19,2.09,4.86,2.09s3.75-.59,4.86-2.08c1.31-1.76.51-3.76-1.19-4.79,0-.42-.02-1.07-.06-1.78l-.02-.36-.13.12-1.45-1.62,1.21-1.57v-.03c-.04-.09-.07-.16-.1-.2.24-.39.48-.78.72-1.18,1.12.35,2.24.7,3.36,1.05-.64,1.04-1.27,2.09-1.91,3.13.93.45,1.71,1.04,2.42,1.8,1.48-.42,2.96-.83,4.45-1.24.45.81.9,1.63,1.34,2.45-1.48.41-2.97.83-4.45,1.24.09.37.13.74.13,1.12h0c0,.49-.07.93-.2,1.38,1.46.46,2.92.91,4.38,1.37-.49.8-.98,1.61-1.48,2.41-1.46-.46-2.92-.92-4.38-1.37-.75.75-1.56,1.3-2.52,1.73l1.74,3.18c-1.14.32-2.28.64-3.42.95Z"/>
        <path class="cls-4" d="M5.3,15.83l1.65-.46c-.21-.87-.19-1.65.07-2.5-1.46-.46-2.92-.91-4.38-1.37v3.49c.89.28,1.78.56,2.66.84Z"/>
        <polygon class="cls-4" points="3.84 19.06 2.5 16.61 2.5 20.11 3.84 22.56 3.84 19.06"/>
        <polygon class="cls-3" points="3.84 19.06 3.84 22.56 8.29 21.31 8.29 17.82 3.84 19.06"/>
        <path class="cls-4" d="M8.29,21.31c.27.3.56.58.88.82.51-.84,1.03-1.68,1.54-2.52-.93-.45-1.71-1.04-2.42-1.8v3.49Z"/>
        <polygon class="cls-4" points="12.16 23.8 8.79 22.75 8.79 26.24 12.16 27.3 12.16 23.8"/>
        <polygon class="cls-3" points="12.16 23.8 12.16 27.3 14.08 24.17 14.08 20.67 12.16 23.8"/>
        <path class="cls-3" d="M17.57,20.72c-1.18.14-2.32.13-3.49-.05v3.5c1.17.18,2.32.2,3.49.05v-3.49Z"/>
        <polygon class="cls-4" points="19.31 23.9 17.57 20.72 17.57 24.22 19.31 27.4 19.31 23.9"/>
        <polygon class="cls-3" points="19.31 23.9 19.31 27.4 22.73 26.44 22.73 22.95 19.31 23.9"/>
        <path class="cls-3" d="M23.51,18.03c-.75.75-1.56,1.3-2.52,1.73.48.89.97,1.77,1.45,2.66.38-.26.73-.56,1.06-.9v-3.5Z"/>
        <polygon class="cls-4" points="23.51 21.53 27.88 22.9 27.88 19.41 23.51 18.03 23.51 21.53"/>
        <polygon class="cls-3" points="27.88 19.41 27.88 22.9 29.36 20.49 29.36 17 27.88 19.41"/>
        <path class="cls-3" d="M21.29,8.88c.55.27,1.06.59,1.54.98.12-.2.25-.41.38-.61v-3.5c-.64,1.04-1.27,2.09-1.91,3.13Z"/>
        <path class="cls-4" d="M9.56,9.57c.46-.33.94-.6,1.46-.83-.58-1.06-1.16-2.12-1.74-3.18v3.5c.1.17.19.35.29.52Z"/>
        <polyline class="cls-5" points="14.58 7.41 12.69 4.6 9.27 5.55 9.27 9.05 9.56 9.57"/>
        <path class="cls-5" d="M11.01,8.74c-.97.41-1.79,1.01-2.52,1.73l-4.38-1.37-1.48,2.41v3.49l2.68.83"/>
        <path class="cls-5" d="M7.02,12.87c-.28.83-.26,1.66-.07,2.5l-4.45,1.24v3.5l1.34,2.45,4.45-1.24.88.82"/>
        <path class="cls-5" d="M10.71,19.62l-1.91,3.13v3.5l3.36,1.05,1.92-3.13c1.16.17,2.33.2,3.49.05l1.74,3.18,3.42-.96v-3.49l-1.74-3.18"/>
        <path class="cls-5" d="M25.05,13.13c.18.77.21,1.59-.04,2.51l4.34,1.36v3.5l-1.48,2.4-4.38-1.37c-.32.33-.68.63-1.06.9"/>
        <polyline class="cls-5" points="17.71 7.58 19.84 4.7 23.21 5.76 23.21 9.25 22.81 9.84"/>
        <path class="cls-5" d="M21.29,8.88c.89.43,1.7,1.01,2.42,1.8l4.45-1.24,1.34,2.45v3.47l-2.84.8"/>
        <path d="M10.48,14.32c.2.48.42.94.74,1.36.63.83,1.5,1.38,2.43,1.69.5.17,1.03.27,1.59.33.16.02.33.02.49.03.08,0,.16,0,.24,0,.03,0,.06,0,.09,0h.01s.01,0,0,0c-.01,0,.01,0,.03,0,.05,0,.1,0,.15,0,.72-.03,1.41-.14,2.05-.33.26-.07.51-.17.75-.28.28-.13.55-.28.8-.46.13-.09.25-.19.37-.3.64-.61,1.01-1.33,1.27-2.13.05.29.03.63-.02.92-.16.95-.75,1.77-1.53,2.34-.38.27-.79.48-1.22.65-1.07.43-2.41.59-3.68.44-1.25-.15-2.4-.61-3.31-1.43-.55-.5-.98-1.13-1.17-1.82-.09-.32-.14-.66-.1-1.02Z"/>
        <path class="cls-1" d="M14.7,7.07c-.87.25-1.93.9-2.06,2-.13,1.15.83,1.94,1.7,2.28.91.36,1.99.38,2.91.07.87-.29,1.9-1.01,1.9-2.14h0c0-1.07-.9-1.77-1.71-2.09-.86-.33-1.85-.37-2.73-.12Z"/>
        <path class="cls-5" d="M19.42,17.52l.06-7.91c0-1.46-1.39-2.69-3.47-2.69s-3.51,1.13-3.51,2.58v7.5"/>
      </g>
    </g>
  </g>
</svg>