<?xml version="1.0" encoding="UTF-8"?>
<svg id="Layer_1" data-name="Layer 1" xmlns="http://www.w3.org/2000/svg" viewBox="0 0 425.2 425.2">
  <defs>
    <style>
      .cls-1 {
        fill: #fff;
        stroke-width: 0px;
      }
    </style>
  </defs>
  <path class="cls-1" d="M396.57,213.21c-9.67-21.64-19.63-43.2-31.13-63.98-9.52-16.37-25.36-45.51-45.79-48.57-11.28-1.4-20.73,5.17-28.46,13.8-18.82,16.95-44.4,26.24-69.58,29.35,19.03-.04,38.73-3.47,56.42-11.22-.71,1.12-1.39,2.22-2.04,3.26-15.38,26.22-27.13,53.88-38.74,81.73h19.73c8.78-25.69,18.05-51.45,30.11-75.57,3.74-6.95,9.55-18.25,16.95-25.47l.11-.11c5.53-5.36,11.96-8.43,19.07-5.71,25.46,9.47,59.53,77.28,73.35,102.49Z"/>
  <path class="cls-1" d="M146.59,132.55c17.74,7.76,37.33,11.27,56.45,11.26-25.17-3.11-50.72-12.38-69.54-29.31-7.74-8.64-17.19-15.23-28.5-13.84-20.42,3.04-36.31,32.23-45.8,48.57-5.75,10.39-11.11,20.97-16.25,31.67-5.13,10.69-10.04,21.49-14.87,32.31,13.89-25.32,47.89-93.01,73.35-102.49,7.33-2.79,13.91.54,19.55,6.19,7.23,7.22,12.9,18.26,16.59,25.1,12.05,24.13,21.32,49.89,30.11,75.57h19.73c-11.61-27.85-23.37-55.52-38.75-81.73-.66-1.06-1.35-2.17-2.06-3.3Z"/>
  <path class="cls-1" d="M377.8,192.51c-18.99-19.76-46.6-41.45-75.43-31.5-9.98,3.61-18.31,10.16-25.26,18.24,2.52-6.42,5.27-13.21,8.3-20.03,5.47-3.09,11.34-5.41,17.54-6.59,3.32-.64,6.59-.95,9.8-.95,26.66,0,49.28,20.91,65.05,40.82Z"/>
  <path class="cls-1" d="M281.56,115.23c-3.01,2.25-6.22,4.37-9.62,6.35-3.65-2.46-7.32-4.86-11.03-7.19-7.78-4.86-15.68-9.47-23.82-12.98-8.11-3.56-16.46-5.91-24.76-5.87-8.31-.06-16.65,2.31-24.76,5.86-8.15,3.51-16.05,8.13-23.83,12.98-3.7,2.33-7.38,4.74-11.03,7.19-3.41-1.98-6.61-4.09-9.6-6.33,4.79-3.48,9.66-6.89,14.64-10.18,7.94-5.23,16.2-10.17,25.17-14.23,4.49-2.01,9.19-3.75,14.12-5,4.92-1.26,10.09-1.99,15.29-2,5.2,0,10.38.74,15.29,1.99,4.94,1.26,9.63,3,14.13,5,8.97,4.06,17.22,9.01,25.17,14.23,4.98,3.3,9.85,6.7,14.64,10.18Z"/>
  <path class="cls-1" d="M147.54,179.27c-6.96-8.08-15.28-14.63-25.27-18.25-28.82-9.96-56.43,11.73-75.43,31.5,15.77-19.91,38.4-40.82,65.06-40.82,3.2,0,6.47.3,9.79.95,6.2,1.18,12.07,3.49,17.54,6.59,3.04,6.83,5.8,13.63,8.31,20.04Z"/>
  <path class="cls-1" d="M254.9,224.37h-19.71c-7.43,22.36-14.85,44.71-22.28,67.07-.2.6-.4,1.19-.59,1.79-.2-.6-.4-1.19-.59-1.79-7.43-22.36-14.85-44.71-22.28-67.07h-19.71c10.84,30.25,21.68,60.49,32.52,90.74l10.06,28.1,10.06-28.1h0c10.84-30.25,21.68-60.49,32.52-90.74Z"/>
  <g>
    <path class="cls-1" d="M86.94,279.94h-9.25v13.27h-2.71v-31.83h10.34c3.4,0,6.05.82,7.96,2.47,1.91,1.65,2.86,3.95,2.86,6.9,0,2.04-.6,3.83-1.79,5.39s-2.8,2.64-4.81,3.23l7.96,13.55v.28h-2.86l-7.7-13.27ZM77.69,277.67h8.24c2.26,0,4.07-.64,5.44-1.93,1.37-1.28,2.05-2.95,2.05-4.99,0-2.25-.71-3.99-2.14-5.23s-3.43-1.86-6.01-1.86h-7.59v14.01Z"/>
    <path class="cls-1" d="M105.45,273.56c.86-1.41,1.96-2.51,3.3-3.28s2.81-1.16,4.39-1.16c2.54,0,4.42.71,5.66,2.14s1.87,3.57,1.88,6.43v15.52h-2.6v-15.54c-.01-2.11-.46-3.69-1.34-4.72s-2.29-1.55-4.23-1.55c-1.62,0-3.05.51-4.3,1.52s-2.17,2.38-2.77,4.1v16.2h-2.6v-33.58h2.6v13.93Z"/>
    <path class="cls-1" d="M127.27,262.73c0-.49.16-.91.48-1.25.32-.34.76-.51,1.31-.51s.99.17,1.32.51c.33.34.49.76.49,1.25s-.16.91-.49,1.24-.77.5-1.32.5-.99-.17-1.31-.5-.48-.75-.48-1.24ZM130.35,293.21h-2.62v-23.65h2.62v23.65Z"/>
    <path class="cls-1" d="M139.95,269.56l.09,4.04c.89-1.46,2-2.57,3.32-3.33s2.79-1.15,4.39-1.15c2.54,0,4.42.71,5.66,2.14s1.87,3.57,1.88,6.43v15.52h-2.6v-15.54c-.01-2.11-.46-3.69-1.34-4.72s-2.29-1.55-4.23-1.55c-1.62,0-3.05.51-4.3,1.52s-2.17,2.38-2.77,4.1v16.2h-2.6v-23.65h2.49Z"/>
    <path class="cls-1" d="M160.61,281.03c0-2.27.44-4.32,1.32-6.14s2.13-3.24,3.74-4.25,3.44-1.52,5.48-1.52c3.15,0,5.7,1.1,7.65,3.31s2.93,5.13,2.93,8.78v.55c0,2.29-.44,4.35-1.32,6.18s-2.12,3.24-3.73,4.23-3.43,1.49-5.49,1.49c-3.13,0-5.68-1.1-7.64-3.31s-2.94-5.13-2.94-8.78v-.52ZM163.23,281.76c0,2.83.73,5.15,2.2,6.96s3.38,2.72,5.76,2.72,4.27-.91,5.74-2.72,2.2-4.21,2.2-7.18v-.5c0-1.81-.34-3.46-1.01-4.96s-1.61-2.66-2.82-3.49-2.59-1.24-4.15-1.24c-2.33,0-4.23.91-5.71,2.74s-2.21,4.22-2.21,7.18v.48Z"/>
  </g>
  <g>
    <path class="cls-1" d="M260.47,286.92h-11.6l-2.02,6.27h-9.04l12.87-33.56h7.95l12.97,33.56h-9.09l-2.05-6.27ZM250.9,280.67h7.55l-3.78-11.64-3.76,11.64Z"/>
    <path class="cls-1" d="M301.28,259.63v21.96c0,2.49-.55,4.64-1.66,6.46s-2.7,3.21-4.77,4.16-4.52,1.43-7.35,1.43c-4.27,0-7.64-1.06-10.1-3.18s-3.71-5.02-3.76-8.71v-22.12h8.51v22.29c.1,3.67,1.88,5.51,5.35,5.51,1.75,0,3.08-.46,3.98-1.38s1.35-2.42,1.35-4.49v-21.92h8.46Z"/>
    <path class="cls-1" d="M315.02,286.96h14.73v6.22h-23.19v-33.56h8.46v27.33Z"/>
    <path class="cls-1" d="M355.93,265.88h-10.53v27.31h-8.46v-27.31h-10.34v-6.25h29.34v6.25Z"/>
  </g>
</svg>