<?xml version="1.0" encoding="UTF-8"?><svg id="MODIFY" xmlns="http://www.w3.org/2000/svg" viewBox="0 0 32 32"><defs><style>.cls-1{stroke-width:2px;}.cls-1,.cls-2{stroke:#000;stroke-linecap:round;}.cls-1,.cls-2,.cls-3{stroke-linejoin:round;}.cls-1,.cls-2,.cls-4{fill:#fff;}.cls-2,.cls-5,.cls-3{stroke-width:1px;}.cls-5,.cls-3{fill:none;stroke:#b3b3b3;stroke-linecap:square;}.cls-5,.cls-4{stroke-miterlimit:10;}.cls-4{stroke:#fff;stroke-width:1.5px;}</style></defs><g id="EDGES-2"><line class="cls-5" x1="7.5" y1="7" x2="7.5" y2="2.5"/><line class="cls-5" x1="7.5" y1="29.5" x2="7.5" y2="25"/><line class="cls-3" x1="24.5" y1="2.5" x2="24.5" y2="29.5"/><line class="cls-5" x1="2.43" y1="7.5" x2="29.49" y2="7.5"/><line class="cls-1" x1="7.5" y1="24.5" x2="7.5" y2="7.5"/><line class="cls-5" x1="29.5" y1="24.5" x2="2.5" y2="24.5"/></g><g id="HIGHLIGHTS"><circle class="cls-2" cx="7.5" cy="24.5" r="2"/><circle class="cls-2" cx="7.5" cy="7.5" r="2"/></g><g id="TEXT-2"><path class="cls-4" d="M12.49,14.98c0-1.16.26-2.08.78-2.75s1.23-1.01,2.13-1.01c.79,0,1.43.3,1.9.91l.13-.77h1.74v10.24h-1.99v-3.48c-.46.51-1.05.77-1.79.77-.88,0-1.59-.34-2.11-1.03s-.79-1.64-.79-2.88ZM14.47,15.12c0,.71.12,1.25.37,1.62.25.37.6.55,1.05.55.61,0,1.04-.24,1.29-.73v-3.06c-.25-.47-.67-.7-1.27-.7-.46,0-.81.19-1.06.55-.25.37-.38.96-.38,1.76Z"/><path d="M12.49,14.98c0-1.16.26-2.08.78-2.75s1.23-1.01,2.13-1.01c.79,0,1.43.3,1.9.91l.13-.77h1.74v10.24h-1.99v-3.48c-.46.51-1.05.77-1.79.77-.88,0-1.59-.34-2.11-1.03s-.79-1.64-.79-2.88ZM14.47,15.12c0,.71.12,1.25.37,1.62.25.37.6.55,1.05.55.61,0,1.04-.24,1.29-.73v-3.06c-.25-.47-.67-.7-1.27-.7-.46,0-.81.19-1.06.55-.25.37-.38.96-.38,1.76Z"/></g></svg>