<?xml version="1.0" encoding="UTF-8"?><svg id="ANCHORS" xmlns="http://www.w3.org/2000/svg" viewBox="0 0 32 32"><defs><style>.cls-1{fill:#fff;stroke:red;stroke-linecap:round;stroke-linejoin:round;}.cls-2{stroke-linecap:square;}.cls-2,.cls-3{fill:none;stroke:#b3b3b3;stroke-miterlimit:10;}</style></defs><g id="MESH"><rect class="cls-3" x="3.5" y="3.5" width="25" height="25"/><line class="cls-2" x1="3.5" y1="3.5" x2="3.5" y2="28.5"/><line class="cls-2" x1="28.5" y1="3.5" x2="28.5" y2="28.5"/><line class="cls-2" x1="23.5" y1="3.5" x2="23.5" y2="28.5"/><line class="cls-2" x1="13.5" y1="3.5" x2="13.5" y2="28.5"/><line class="cls-2" x1="18.5" y1="3.5" x2="18.5" y2="28.5"/><line class="cls-2" x1="8.5" y1="3.5" x2="8.5" y2="28.5"/><line class="cls-2" x1="3.5" y1="8.5" x2="28.5" y2="8.5"/><line class="cls-2" x1="3.5" y1="18.5" x2="28.5" y2="18.5"/><line class="cls-2" x1="3.5" y1="13.5" x2="28.5" y2="13.5"/><line class="cls-2" x1="3.5" y1="23.5" x2="28.5" y2="23.5"/></g><g id="VERTICES"><rect class="cls-1" x="2.5" y="2.5" width="2" height="2"/><rect class="cls-1" x="27.5" y="2.5" width="2" height="2"/><rect class="cls-1" x="27.5" y="27.5" width="2" height="2"/><rect class="cls-1" x="2.5" y="27.5" width="2" height="2"/></g></svg>