<?xml version="1.0" encoding="UTF-8"?><svg id="SOLVERS" xmlns="http://www.w3.org/2000/svg" xmlns:xlink="http://www.w3.org/1999/xlink" viewBox="0 0 32 32"><defs><style>.cls-1{stroke:red;}.cls-1,.cls-2,.cls-3{stroke-linecap:round;stroke-linejoin:round;}.cls-1,.cls-4{fill:#fff;}.cls-5{fill:url(#radial-gradient);}.cls-2{stroke-width:.25px;}.cls-2,.cls-3{fill:none;stroke:#000;}.cls-3{stroke-width:.5px;}.cls-4{stroke:#fff;stroke-miterlimit:10;stroke-width:1.5px;}</style><radialGradient id="radial-gradient" cx="15.99" cy="16" fx="15.99" fy="16" r="12.5" gradientUnits="userSpaceOnUse"><stop offset=".5" stop-color="#fff"/><stop offset="1" stop-color="#999"/></radialGradient></defs><g id="mesh_fill"><polygon class="cls-5" points="25.39 8.88 28.49 3.5 23.11 6.6 18.32 7.98 13.67 7.98 8.87 6.6 3.49 3.5 6.6 8.88 7.97 13.68 7.97 18.32 6.6 23.12 3.49 28.5 8.87 25.4 13.67 24.02 18.32 24.02 23.11 25.4 28.49 28.5 25.39 23.12 24.01 18.32 24.01 13.68 25.39 8.88"/></g><g id="MESH-3"><line class="cls-3" x1="23.11" y1="6.6" x2="28.49" y2="3.5"/><line class="cls-3" x1="18.32" y1="7.98" x2="23.11" y2="6.6"/><line class="cls-3" x1="13.67" y1="7.98" x2="18.32" y2="7.98"/><line class="cls-3" x1="8.87" y1="6.6" x2="13.67" y2="7.98"/><line class="cls-3" x1="3.49" y1="3.5" x2="8.87" y2="6.6"/><line class="cls-3" x1="25.39" y1="8.88" x2="28.49" y2="3.5"/><line class="cls-2" x1="21.94" y1="10.05" x2="25.39" y2="8.88"/><line class="cls-2" x1="21.94" y1="10.05" x2="23.11" y2="6.6"/><line class="cls-2" x1="18.01" y1="10.74" x2="18.32" y2="7.98"/><line class="cls-2" x1="18.01" y1="10.74" x2="21.94" y2="10.05"/><line class="cls-2" x1="13.98" y1="10.74" x2="13.67" y2="7.98"/><line class="cls-2" x1="13.98" y1="10.74" x2="18.01" y2="10.74"/><line class="cls-2" x1="10.04" y1="10.05" x2="13.98" y2="10.74"/><line class="cls-2" x1="10.04" y1="10.05" x2="8.87" y2="6.6"/><line class="cls-2" x1="6.6" y1="8.88" x2="10.04" y2="10.05"/><line class="cls-3" x1="6.6" y1="8.88" x2="3.49" y2="3.5"/><line class="cls-3" x1="24.01" y1="13.68" x2="25.39" y2="8.88"/><line class="cls-2" x1="21.26" y1="13.98" x2="24.01" y2="13.68"/><line class="cls-2" x1="21.26" y1="13.98" x2="21.94" y2="10.05"/><line class="cls-2" x1="17.81" y1="14.18" x2="21.26" y2="13.98"/><line class="cls-2" x1="17.81" y1="14.18" x2="18.01" y2="10.74"/><line class="cls-2" x1="14.17" y1="14.18" x2="13.98" y2="10.74"/><line class="cls-2" x1="14.17" y1="14.18" x2="17.81" y2="14.18"/><line class="cls-2" x1="10.73" y1="13.98" x2="10.04" y2="10.05"/><line class="cls-2" x1="10.73" y1="13.98" x2="14.17" y2="14.18"/><line class="cls-2" x1="7.97" y1="13.68" x2="10.73" y2="13.98"/><line class="cls-3" x1="7.97" y1="13.68" x2="6.6" y2="8.88"/><line class="cls-3" x1="24.01" y1="18.32" x2="24.01" y2="13.68"/><line class="cls-2" x1="21.26" y1="18.02" x2="24.01" y2="18.32"/><line class="cls-2" x1="21.26" y1="18.02" x2="21.26" y2="13.98"/><line class="cls-2" x1="17.81" y1="17.82" x2="21.26" y2="18.02"/><line class="cls-2" x1="17.81" y1="17.82" x2="17.81" y2="14.18"/><line class="cls-2" x1="14.17" y1="17.82" x2="17.81" y2="17.82"/><line class="cls-2" x1="14.17" y1="17.82" x2="14.17" y2="14.18"/><line class="cls-2" x1="10.73" y1="18.02" x2="10.73" y2="13.98"/><line class="cls-2" x1="10.73" y1="18.02" x2="14.17" y2="17.82"/><line class="cls-2" x1="7.97" y1="18.32" x2="10.73" y2="18.02"/><line class="cls-3" x1="7.97" y1="18.32" x2="7.97" y2="13.68"/><line class="cls-3" x1="25.39" y1="23.12" x2="24.01" y2="18.32"/><line class="cls-2" x1="21.94" y1="21.95" x2="25.39" y2="23.12"/><line class="cls-2" x1="21.94" y1="21.95" x2="21.26" y2="18.02"/><line class="cls-2" x1="18.01" y1="21.26" x2="21.94" y2="21.95"/><line class="cls-2" x1="18.01" y1="21.26" x2="17.81" y2="17.82"/><line class="cls-2" x1="13.98" y1="21.26" x2="18.01" y2="21.26"/><line class="cls-2" x1="13.98" y1="21.26" x2="14.17" y2="17.82"/><line class="cls-2" x1="10.04" y1="21.95" x2="13.98" y2="21.26"/><line class="cls-2" x1="10.04" y1="21.95" x2="10.73" y2="18.02"/><line class="cls-3" x1="6.6" y1="23.12" x2="7.97" y2="18.32"/><line class="cls-2" x1="6.6" y1="23.12" x2="10.04" y2="21.95"/><line class="cls-3" x1="28.49" y1="28.5" x2="25.39" y2="23.12"/><line class="cls-3" x1="23.11" y1="25.4" x2="28.49" y2="28.5"/><line class="cls-2" x1="23.11" y1="25.4" x2="21.94" y2="21.95"/><line class="cls-3" x1="18.32" y1="24.02" x2="23.11" y2="25.4"/><line class="cls-2" x1="18.32" y1="24.02" x2="18.01" y2="21.26"/><line class="cls-3" x1="13.67" y1="24.02" x2="18.32" y2="24.02"/><line class="cls-2" x1="13.67" y1="24.02" x2="13.98" y2="21.26"/><line class="cls-3" x1="8.87" y1="25.4" x2="13.67" y2="24.02"/><line class="cls-2" x1="8.87" y1="25.4" x2="10.04" y2="21.95"/><line class="cls-3" x1="3.49" y1="28.5" x2="6.6" y2="23.12"/><line class="cls-3" x1="3.49" y1="28.5" x2="8.87" y2="25.4"/></g><g id="ANCHORS-2"><rect class="cls-1" x="2.5" y="2.5" width="2" height="2"/><rect class="cls-1" x="27.5" y="2.5" width="2" height="2"/><rect class="cls-1" x="27.5" y="27.5" width="2" height="2"/><rect class="cls-1" x="2.5" y="27.5" width="2" height="2"/></g><g id="TEXT_x5F_white"><path class="cls-4" d="M10.97,21.25v-5.95h-1.1v-1.45h1.1v-.63c0-.83.24-1.47.71-1.93.48-.46,1.14-.69,2-.69.27,0,.61.05,1,.14l-.02,1.53c-.16-.04-.36-.06-.6-.06-.74,0-1.11.35-1.11,1.05v.59h1.47v1.45h-1.47v5.95h-1.98Z"/><path class="cls-4" d="M14.97,17.5c0-1.15.26-2.07.78-2.75.52-.68,1.23-1.03,2.12-1.03.72,0,1.31.27,1.78.81v-3.77h1.98v10.5h-1.78l-.1-.79c-.49.62-1.13.92-1.9.92-.87,0-1.57-.34-2.1-1.03-.53-.69-.79-1.64-.79-2.86ZM16.95,17.64c0,.69.12,1.23.36,1.59.24.37.59.55,1.05.55.61,0,1.04-.26,1.29-.77v-2.92c-.25-.52-.67-.77-1.28-.77-.95,0-1.43.77-1.43,2.32Z"/></g><g id="TEXT"><path d="M10.97,21.25v-5.95h-1.1v-1.45h1.1v-.63c0-.83.24-1.47.71-1.93.48-.46,1.14-.69,2-.69.27,0,.61.05,1,.14l-.02,1.53c-.16-.04-.36-.06-.6-.06-.74,0-1.11.35-1.11,1.05v.59h1.47v1.45h-1.47v5.95h-1.98Z"/><path d="M14.97,17.5c0-1.15.26-2.07.78-2.75.52-.68,1.23-1.03,2.12-1.03.72,0,1.31.27,1.78.81v-3.77h1.98v10.5h-1.78l-.1-.79c-.49.62-1.13.92-1.9.92-.87,0-1.57-.34-2.1-1.03-.53-.69-.79-1.64-.79-2.86ZM16.95,17.64c0,.69.12,1.23.36,1.59.24.37.59.55,1.05.55.61,0,1.04-.26,1.29-.77v-2.92c-.25-.52-.67-.77-1.28-.77-.95,0-1.43.77-1.43,2.32Z"/></g></svg>