<?xml version="1.0" encoding="UTF-8"?><svg id="MODIFY" xmlns="http://www.w3.org/2000/svg" xmlns:xlink="http://www.w3.org/1999/xlink" viewBox="0 0 32 32"><defs><style>.cls-1{stroke:url(#linear-gradient-2);}.cls-1,.cls-2,.cls-3,.cls-4,.cls-5,.cls-6,.cls-7,.cls-8,.cls-9{fill:none;stroke-linecap:square;stroke-miterlimit:10;}.cls-2{stroke:red;}.cls-3{stroke:url(#linear-gradient-5);}.cls-3,.cls-10,.cls-7,.cls-9{stroke-width:1px;}.cls-4{stroke:url(#linear-gradient-4);}.cls-5{stroke:url(#linear-gradient);}.cls-6{stroke:url(#linear-gradient-3);}.cls-10{fill:#fff;stroke:#000;stroke-linecap:round;stroke-linejoin:round;}.cls-7,.cls-8{stroke:#b3b3b3;}.cls-9{stroke:url(#linear-gradient-6);}</style><linearGradient id="linear-gradient" x1="29" y1="24.5" x2="22.08" y2="24.5" gradientUnits="userSpaceOnUse"><stop offset="0" stop-color="#b3b3b3" stop-opacity="0"/><stop offset="1" stop-color="#b3b3b3"/></linearGradient><linearGradient id="linear-gradient-2" x1="2" x2="9.1" xlink:href="#linear-gradient"/><linearGradient id="linear-gradient-3" y1="7.5" x2="21.97" y2="7.5" xlink:href="#linear-gradient"/><linearGradient id="linear-gradient-4" x1="2" y1="7.5" x2="9.05" y2="7.5" xlink:href="#linear-gradient"/><linearGradient id="linear-gradient-5" x1="15.5" y1="2" x2="15.5" y2="8.08" xlink:href="#linear-gradient"/><linearGradient id="linear-gradient-6" x1="15.5" y1="30" x2="15.5" y2="24.23" xlink:href="#linear-gradient"/></defs><g id="EDGES-2"><line class="cls-5" x1="22.58" y1="24.5" x2="28.5" y2="24.5"/><line class="cls-8" x1="8.6" y1="24.5" x2="22.58" y2="24.5"/><line class="cls-1" x1="2.5" y1="24.5" x2="8.6" y2="24.5"/><line class="cls-6" x1="22.47" y1="7.5" x2="28.5" y2="7.5"/><line class="cls-8" x1="8.55" y1="7.5" x2="22.47" y2="7.5"/><line class="cls-4" x1="2.5" y1="7.5" x2="8.55" y2="7.5"/><line class="cls-3" x1="15.5" y1="7.58" x2="15.5" y2="2.5"/><line class="cls-7" x1="15.5" y1="24.73" x2="15.5" y2="7.58"/><line class="cls-9" x1="15.5" y1="29.5" x2="15.5" y2="24.73"/></g><g id="HIGHLIGHTS"><circle class="cls-10" cx="15.5" cy="24.5" r="2"/><line class="cls-2" x1="15.5" y1="20.5" x2="15.5" y2="10.5"/><line class="cls-2" x1="17.5" y1="12.5" x2="13.5" y2="12.5"/><line class="cls-2" x1="16.5" y1="11.5" x2="14.5" y2="11.5"/><line class="cls-2" x1="12.5" y1="13.5" x2="18.5" y2="13.5"/></g></svg>