<?xml version="1.0" encoding="UTF-8"?>
<svg id="RV-logo" xmlns="http://www.w3.org/2000/svg" xmlns:xlink="http://www.w3.org/1999/xlink" viewBox="0 0 32 32">
  <defs>
    <style>
      .cls-1, .cls-2 {
        fill: #c4c4c4;
      }

      .cls-2 {
        stroke-miterlimit: 10;
      }

      .cls-2, .cls-3, .cls-4, .cls-5 {
        fill-rule: evenodd;
      }

      .cls-2, .cls-4 {
        stroke: #000;
        stroke-width: .95px;
      }

      .cls-3 {
        fill: #1d1d1b;
      }

      .cls-4 {
        fill: url(#Linear_Gradient_53);
        stroke-linejoin: round;
      }

      .cls-5 {
        fill: url(#linear-gradient);
      }
    </style>
    <linearGradient id="linear-gradient" x1="2.05" y1="6.2" x2="13.29" y2="22.16" gradientUnits="userSpaceOnUse">
      <stop offset=".05" stop-color="#fff" stop-opacity=".25"/>
      <stop offset=".17" stop-color="#fff" stop-opacity=".32"/>
      <stop offset=".41" stop-color="#fff" stop-opacity=".49"/>
      <stop offset=".75" stop-color="#fff" stop-opacity=".77"/>
      <stop offset="1" stop-color="#fff"/>
    </linearGradient>
    <linearGradient id="Linear_Gradient_53" data-name="Linear Gradient 53" x1="10.06" y1="24.53" x2="11.96" y2="24.53" gradientUnits="userSpaceOnUse">
      <stop offset="0" stop-color="#ffcc4a"/>
      <stop offset="1" stop-color="#cf9600"/>
    </linearGradient>
  </defs>
  <polygon class="cls-5" points="7.23 28.78 1.53 27.05 1.53 7.98 25.57 18.03 7.23 28.78"/>
  <polygon points="7.15 29.02 1.53 27.05 7.3 28.54 7.15 29.02 7.15 29.02"/>
  <polygon points="25.38 18.49 1.53 7.98 25.76 17.57 25.38 18.49 25.38 18.49"/>
  <polygon points="21.27 20.73 5.86 14.01 21.46 20.26 21.27 20.73 21.27 20.73"/>
  <polygon points="20.06 21.4 8.09 16.26 20.15 21.17 20.06 21.4 20.06 21.4"/>
  <polygon points="10.16 27.15 3.06 24.05 10.26 26.92 10.16 27.15 10.16 27.15"/>
  <polygon points="16.13 23.74 9.08 20.52 16.32 23.28 16.13 23.74 16.13 23.74"/>
  <polygon points="14.03 25.05 4.75 20.77 14.32 24.36 14.03 25.05 14.03 25.05"/>
  <polygon class="cls-4" points="28.72 19.05 29.99 22.7 11.65 30 7.23 28.78 7.86 24.53 26.19 19.05 28.72 19.05"/>
  <polygon class="cls-2" points="11.65 26.03 30 19.07 30 17.81 25.57 16.54 7.22 22.87 7.22 24.76 11.65 26.03"/>
  <g>
    <polygon class="cls-3" points="16.7 21.33 8.63 1.99 13.47 1.99 20.83 19.6 16.7 21.33"/>
    <polygon class="cls-1" points="19.94 19.97 12.43 1.99 9.8 1.99 17.7 20.91 19.94 19.97"/>
  </g>
</svg>