<?xml version="1.0" encoding="UTF-8"?>
<svg xmlns="http://www.w3.org/2000/svg" xmlns:xlink="http://www.w3.org/1999/xlink" viewBox="0 0 32 32">
  <defs>
    <style>
      .cls-1 {
        fill: none;
      }

      .cls-1, .cls-2, .cls-3, .cls-4, .cls-5 {
        stroke-width: 0px;
      }

      .cls-2, .cls-6 {
        fill: #c4c4c4;
      }

      .cls-3 {
        fill: url(#linear-gradient);
      }

      .cls-3, .cls-6, .cls-5, .cls-7 {
        fill-rule: evenodd;
      }

      .cls-6 {
        stroke-miterlimit: 10;
      }

      .cls-6, .cls-7 {
        stroke: #000;
        stroke-width: .95px;
      }

      .cls-4 {
        fill: #000;
      }

      .cls-5 {
        fill: #1d1d1b;
      }

      .cls-7 {
        fill: url(#Linear_Gradient_53);
        stroke-linejoin: round;
      }
    </style>
    <linearGradient id="linear-gradient" x1="4.98" y1="10.37" x2="13.09" y2="21.88" gradientUnits="userSpaceOnUse">
      <stop offset=".19" stop-color="#fff" stop-opacity=".25"/>
      <stop offset=".3" stop-color="rgba(255, 255, 255, .32)" stop-opacity=".32"/>
      <stop offset=".5" stop-color="rgba(255, 255, 255, .49)" stop-opacity=".49"/>
      <stop offset=".78" stop-color="rgba(255, 255, 255, .77)" stop-opacity=".77"/>
      <stop offset="1" stop-color="#fff"/>
    </linearGradient>
    <linearGradient id="Linear_Gradient_53" data-name="Linear Gradient 53" x1="10.06" y1="24.53" x2="11.96" y2="24.53" gradientUnits="userSpaceOnUse">
      <stop offset="0" stop-color="#ffcc4a"/>
      <stop offset="1" stop-color="#cf9600"/>
    </linearGradient>
  </defs>
  <g id="bounding_box" data-name="bounding box">
    <rect class="cls-1" width="32" height="32"/>
  </g>
  <g id="RV-logo">
    <polygon class="cls-3" points="7.23 28.78 1.53 27.05 1.53 7.98 25.57 18.03 7.23 28.78"/>
    <polygon class="cls-4" points="7.15 29.02 1.53 27.05 7.3 28.54 7.15 29.02 7.15 29.02"/>
    <polygon class="cls-4" points="25.38 18.49 1.53 7.98 25.76 17.57 25.38 18.49 25.38 18.49"/>
    <polygon class="cls-4" points="21.27 20.73 5.86 14.01 21.46 20.26 21.27 20.73"/>
    <polygon class="cls-4" points="20.06 21.4 8.09 16.26 20.15 21.17 20.06 21.4 20.06 21.4"/>
    <polygon class="cls-4" points="10.16 27.15 3.06 24.05 10.26 26.92 10.16 27.15 10.16 27.15"/>
    <polygon class="cls-4" points="16.13 23.74 9.08 20.52 16.32 23.28 16.13 23.74 16.13 23.74"/>
    <polygon class="cls-4" points="14.03 25.05 4.75 20.77 14.32 24.36 14.03 25.05 14.03 25.05"/>
    <polygon class="cls-7" points="28.72 19.05 29.99 22.7 11.65 30 7.23 28.78 7.86 24.53 26.19 19.05 28.72 19.05"/>
    <polygon class="cls-6" points="11.65 26.03 30 19.07 30 17.81 25.57 16.54 7.22 22.87 7.22 24.76 11.65 26.03"/>
    <g>
      <polygon class="cls-5" points="16.7 21.33 8.63 1.99 13.47 1.99 20.83 19.6 16.7 21.33"/>
      <polygon class="cls-2" points="19.94 19.97 12.43 1.99 9.8 1.99 17.7 20.91 19.94 19.97"/>
    </g>
  </g>
</svg>