<?xml version="1.0" encoding="UTF-8"?>
<svg xmlns="http://www.w3.org/2000/svg" version="1.1" xmlns:xlink="http://www.w3.org/1999/xlink" viewBox="0 0 32 32">
  <defs>
    <style>
      .cls-1 {
        filter: url(#outer-glow-6);
      }

      .cls-2 {
        fill: #0891d0;
      }
    </style>
    <filter id="outer-glow-6" x="-1.16" y="2.44" width="34.32" height="27.12" filterUnits="userSpaceOnUse">
      <feOffset dx="0" dy="0"/>
      <feGaussianBlur result="blur" stdDeviation="1"/>
      <feFlood flood-color="#000" flood-opacity=".35"/>
      <feComposite in2="blur" operator="in"/>
      <feComposite in="SourceGraphic"/>
    </filter>
  </defs>
  <!-- Generator: Adobe Illustrator 28.7.2, SVG Export Plug-In . SVG Version: 1.2.0 Build 154)  -->
  <g>
    <g id="RV-logo">
      <g class="cls-1">
        <path class="cls-2" d="M30,15.97c-.73-1.75-1.49-3.5-2.36-5.18-.72-1.33-1.93-3.68-3.48-3.93-.86-.11-1.58.42-2.16,1.12-1.43,1.37-3.37,2.12-5.29,2.38,1.45,0,2.94-.28,4.29-.91-.05.09-.11.18-.15.26-1.17,2.12-2.06,4.36-2.94,6.62h1.5c.67-2.08,1.37-4.17,2.29-6.12.28-.56.73-1.48,1.29-2.06h0c.42-.44.91-.69,1.45-.47,1.93.77,4.52,6.26,5.57,8.3Z"/>
        <path class="cls-2" d="M11.01,9.44c1.35.63,2.84.91,4.29.91-1.91-.25-3.85-1-5.28-2.37-.59-.7-1.31-1.23-2.17-1.12-1.55.25-2.76,2.61-3.48,3.93-.44.84-.84,1.7-1.23,2.56-.39.87-.76,1.74-1.13,2.62,1.06-2.05,3.64-7.53,5.57-8.3.56-.23,1.06.04,1.49.5.55.58.98,1.48,1.26,2.03.92,1.95,1.62,4.04,2.29,6.12h1.5c-.88-2.25-1.78-4.49-2.94-6.62-.05-.09-.1-.18-.16-.27Z"/>
        <path class="cls-2" d="M28.57,14.3c-1.44-1.6-3.54-3.36-5.73-2.55-.76.29-1.39.82-1.92,1.48.19-.52.4-1.07.63-1.62.42-.25.86-.44,1.33-.53.25-.05.5-.08.74-.08,2.03,0,3.74,1.69,4.94,3.3Z"/>
        <path class="cls-2" d="M21.26,8.04c-.23.18-.47.35-.73.51-.28-.2-.56-.39-.84-.58-.59-.39-1.19-.77-1.81-1.05-.62-.29-1.25-.48-1.88-.47-.63,0-1.27.19-1.88.47-.62.28-1.22.66-1.81,1.05-.28.19-.56.38-.84.58-.26-.16-.5-.33-.73-.51.36-.28.73-.56,1.11-.82.6-.42,1.23-.82,1.91-1.15.34-.16.7-.3,1.07-.4.37-.1.77-.16,1.16-.16.4,0,.79.06,1.16.16.38.1.73.24,1.07.4.68.33,1.31.73,1.91,1.15.38.27.75.54,1.11.82Z"/>
        <path class="cls-2" d="M11.08,13.23c-.53-.65-1.16-1.18-1.92-1.48-2.19-.81-4.29.95-5.73,2.55,1.2-1.61,2.92-3.3,4.94-3.3.24,0,.49.02.74.08.47.1.92.28,1.33.53.23.55.44,1.1.63,1.62Z"/>
        <path class="cls-2" d="M19.24,16.88h-1.5c-.56,1.81-1.13,3.62-1.69,5.43-.02.05-.03.1-.05.14-.02-.05-.03-.1-.05-.14-.56-1.81-1.13-3.62-1.69-5.43h-1.5c.82,2.45,1.65,4.9,2.47,7.35l.76,2.28.76-2.28h0c.82-2.45,1.65-4.9,2.47-7.35Z"/>
      </g>
    </g>
  </g>
</svg>