<?xml version="1.0" encoding="UTF-8"?>
<svg xmlns="http://www.w3.org/2000/svg" version="1.1" xmlns:xlink="http://www.w3.org/1999/xlink" viewBox="0 0 32 32">
  <defs>
    <style>
      .cls-1 {
        stroke-width: .75px;
      }

      .cls-1, .cls-2 {
        stroke-miterlimit: 10;
      }

      .cls-1, .cls-3, .cls-4 {
        fill: none;
      }

      .cls-1, .cls-4 {
        stroke: #000;
      }

      .cls-2 {
        stroke: red;
      }

      .cls-2, .cls-5, .cls-6 {
        fill: #fff;
      }

      .cls-7 {
        stroke: #999;
        stroke-width: .5px;
      }

      .cls-7, .cls-4 {
        stroke-linecap: round;
        stroke-linejoin: round;
      }

      .cls-7, .cls-8 {
        fill: #999;
      }

      .cls-9 {
        clip-path: url(#clippath-1);
      }

      .cls-5 {
        filter: url(#drop-shadow-5);
      }

      .cls-6 {
        filter: url(#drop-shadow-10);
      }

      .cls-10 {
        fill: url(#radial-gradient);
        filter: url(#drop-shadow-6);
      }

      .cls-11 {
        clip-path: url(#clippath);
      }
    </style>
    <clipPath id="clippath">
      <rect class="cls-3" x="-32" y="0" width="32" height="32"/>
    </clipPath>
    <filter id="drop-shadow-5" x="-36.16" y="-.08" width="40.32" height="32.16" filterUnits="userSpaceOnUse">
      <feOffset dx="0" dy="0"/>
      <feGaussianBlur result="blur" stdDeviation="2"/>
      <feFlood flood-color="#000" flood-opacity=".5"/>
      <feComposite in2="blur" operator="in"/>
      <feComposite in="SourceGraphic"/>
    </filter>
    <radialGradient id="radial-gradient" cx="16" cy="16" fx="16" fy="16" r="35.54" gradientUnits="userSpaceOnUse">
      <stop offset=".14" stop-color="#fff"/>
      <stop offset="1" stop-color="#000"/>
    </radialGradient>
    <filter id="drop-shadow-6" x="-4.08" y="-.08" width="40.08" height="32.16" filterUnits="userSpaceOnUse">
      <feOffset dx="0" dy="0"/>
      <feGaussianBlur result="blur-2" stdDeviation="2"/>
      <feFlood flood-color="#000" flood-opacity=".5"/>
      <feComposite in2="blur-2" operator="in"/>
      <feComposite in="SourceGraphic"/>
    </filter>
    <clipPath id="clippath-1">
      <rect class="cls-3" x="32" y="0" width="32" height="32"/>
    </clipPath>
    <filter id="drop-shadow-10" x="27.84" y="-.08" width="40.32" height="32.16" filterUnits="userSpaceOnUse">
      <feOffset dx="0" dy="0"/>
      <feGaussianBlur result="blur-3" stdDeviation="2"/>
      <feFlood flood-color="#000" flood-opacity=".5"/>
      <feComposite in2="blur-3" operator="in"/>
      <feComposite in="SourceGraphic"/>
    </filter>
  </defs>
  <!-- Generator: Adobe Illustrator 28.7.2, SVG Export Plug-In . SVG Version: 1.2.0 Build 154)  -->
  <g>
    <g id="shadow">
      <g class="cls-11">
        <polygon class="cls-5" points="-15.52 25.96 -15.04 25.96 -12.84 19.76 -10.14 14.57 -6.26 10.46 -2 6.96 -2.23 6.73 -2.47 6.5 -2.7 6.27 -2.93 6.04 -9.38 7.08 -16 7.62 -22.62 7.08 -29.07 6.04 -29.3 6.27 -29.53 6.5 -29.77 6.73 -30 6.96 -25.74 10.46 -21.86 14.57 -19.16 19.76 -16.96 25.96 -16.48 25.96 -15.52 25.96"/>
      </g>
      <path class="cls-10" d="M30,6.96l-4.26,3.5-3.88,4.11-.92-2.45-.93-1.66-1.41-1.42-2.6-1.42,6.62-.54,6.45-1.04.23.23.23.23.24.23.23.23ZM10.14,14.57l2.7,5.19,2.2,6.2h1.92l2.2-6.2,2.7-5.19-3.29.98-2.57.27-2.43-.27-3.43-.98ZM2.7,6.27l-.23.23-.24.23-.23.23,4.26,3.5,3.88,4.11.92-2.45.93-1.66,1.41-1.42,2.6-1.42-6.62-.54-6.45-1.04-.23.23Z"/>
    </g>
    <g id="RV-logo">
      <g class="cls-9">
        <polygon class="cls-6" points="48.48 25.96 48.96 25.96 51.16 19.76 53.86 14.57 57.74 10.46 62 6.96 61.77 6.73 61.53 6.5 61.3 6.27 61.07 6.04 54.62 7.08 48 7.62 41.38 7.08 34.93 6.04 34.7 6.27 34.47 6.5 34.23 6.73 34 6.96 38.26 10.46 42.14 14.57 44.84 19.76 47.04 25.96 47.52 25.96 48.48 25.96"/>
      </g>
    </g>
    <g id="pattern">
      <g>
        <g>
          <polyline class="cls-8" points="5.43 8.48 7.8 9.84 11.1 12.15"/>
          <path class="cls-8" d="M5.43,8.48s2.43,1.25,2.43,1.25c0,0,3.41,2.16,3.42,2.17.34.21-.02.74-.34.49,0,0-3.23-2.47-3.19-2.45,0,0-2.3-1.46-2.3-1.46h0Z"/>
        </g>
        <g>
          <polyline class="cls-8" points="7.65 7.69 9.2 8.14 9.2 8.14 13.4 9.04"/>
          <path class="cls-8" d="M7.65,7.69c1.62.43,4.13.77,5.81,1.05.4.06.27.7-.13.59-1.65-.45-4.1-1.04-5.69-1.64h0Z"/>
        </g>
        <g id="POLYLINE">
          <line class="cls-7" x1="6.26" y1="10.46" x2="7.65" y2="9.84"/>
        </g>
        <g id="POLYLINE-2" data-name="POLYLINE">
          <line class="cls-7" x1="7.65" y1="9.84" x2="8.72" y2="9.1"/>
        </g>
        <g id="POLYLINE-3" data-name="POLYLINE">
          <line class="cls-7" x1="8.72" y1="9.1" x2="9.2" y2="8.14"/>
        </g>
        <g>
          <line class="cls-8" x1="2.47" y1="6.5" x2="11.99" y2="10.46"/>
          <path class="cls-8" d="M2.47,6.5l9.66,3.62c.19.07.29.29.22.48-.08.2-.31.3-.51.21,0,0-9.38-4.31-9.38-4.31h0Z"/>
        </g>
        <g id="POLYLINE-4" data-name="POLYLINE">
          <line class="cls-7" x1="9.2" y1="8.14" x2="9.38" y2="7.08"/>
        </g>
        <g id="POLYLINE-5" data-name="POLYLINE">
          <line class="cls-7" x1="12.84" y1="19.76" x2="14.43" y2="19.16"/>
        </g>
        <g>
          <polyline class="cls-8" points="13.56 15.55 14.58 19.16 15.67 25.96"/>
          <path class="cls-8" d="M13.85,15.46s.92,3.64.92,3.65c0,.02.9,6.83.9,6.84,0,0-1.3-6.84-1.28-6.75,0,0-1.12-3.58-1.12-3.58-.12-.38.48-.55.58-.16h0Z"/>
        </g>
        <g id="POLYLINE-6" data-name="POLYLINE">
          <line class="cls-7" x1="14.43" y1="19.16" x2="16" y2="18.86"/>
        </g>
        <g>
          <line class="cls-8" x1="16" y1="15.82" x2="16" y2="25.96"/>
          <path class="cls-8" d="M16.37,15.82l-.37,10.14-.38-10.14c-.01-.51.76-.51.75,0h0Z"/>
        </g>
        <g>
          <line class="cls-8" x1="20.01" y1="10.46" x2="29.3" y2="6.59"/>
          <path class="cls-8" d="M19.87,10.11l4.58-1.71,4.86-1.81-9.14,4.21c-.46.21-.76-.51-.29-.69h0Z"/>
        </g>
        <g id="POLYLINE-7" data-name="POLYLINE">
          <line class="cls-7" x1="16" y1="18.86" x2="17.57" y2="19.16"/>
        </g>
        <g id="POLYLINE-8" data-name="POLYLINE">
          <g>
            <polyline class="cls-8" points="16.48 25.96 17.57 19.16 17.57 19.16 18.59 15.54"/>
            <path class="cls-8" d="M16.48,25.96l.9-6.83.08.19-.07-.21.92-3.64c.09-.39.7-.22.58.16,0,0-1.12,3.59-1.12,3.59l-.07-.21c-.03-.07.09-.12.11-.04.01.02-.03.21-.04.23,0,0-1.28,6.77-1.28,6.77h0Z"/>
          </g>
        </g>
        <g id="POLYLINE-9" data-name="POLYLINE">
          <line class="cls-7" x1="17.57" y1="19.16" x2="19.16" y2="19.76"/>
        </g>
        <g id="POLYLINE-10" data-name="POLYLINE">
          <line class="cls-7" x1="22.62" y1="7.08" x2="22.8" y2="8.14"/>
        </g>
        <g id="POLYLINE-11" data-name="POLYLINE">
          <line class="cls-7" x1="22.8" y1="8.14" x2="23.28" y2="9.1"/>
        </g>
        <g>
          <polyline class="cls-8" points="24.35 7.69 22.8 8.14 22.8 8.14 18.6 9.04"/>
          <path class="cls-8" d="M24.35,7.69c-1,.42-4.57,1.34-5.69,1.64-.39.11-.53-.52-.13-.59,1.2-.19,4.73-.73,5.81-1.05h0Z"/>
        </g>
        <g id="POLYLINE-12" data-name="POLYLINE">
          <line class="cls-7" x1="23.28" y1="9.1" x2="24.35" y2="9.84"/>
        </g>
        <g id="POLYLINE-13" data-name="POLYLINE">
          <line class="cls-7" x1="24.35" y1="9.84" x2="25.74" y2="10.46"/>
        </g>
        <g>
          <polyline class="cls-8" points="21.05 12.15 24.35 9.84 24.35 9.84 26.72 8.48"/>
          <path class="cls-8" d="M20.87,11.9l3.41-2.16h.13s-.12,0-.12,0l2.43-1.25-2.3,1.46-.1.06s-.07-.05-.02-.06c0,0,.13,0,.13,0l-3.2,2.46c-.32.25-.69-.28-.34-.49h0Z"/>
        </g>
      </g>
      <g id="POLYLINE-14" data-name="POLYLINE">
        <line class="cls-4" x1="2" y1="6.96" x2="2.23" y2="6.73"/>
      </g>
      <g id="POLYLINE-15" data-name="POLYLINE">
        <line class="cls-4" x1="2" y1="6.96" x2="6.26" y2="10.46"/>
      </g>
      <g id="POLYLINE-16" data-name="POLYLINE">
        <line class="cls-4" x1="2.23" y1="6.73" x2="2.47" y2="6.5"/>
      </g>
      <g id="POLYLINE-17" data-name="POLYLINE">
        <line class="cls-4" x1="2.47" y1="6.5" x2="2.7" y2="6.27"/>
      </g>
      <g id="POLYLINE-18" data-name="POLYLINE">
        <line class="cls-4" x1="2.7" y1="6.27" x2="2.93" y2="6.04"/>
      </g>
      <g id="POLYLINE-19" data-name="POLYLINE">
        <line class="cls-4" x1="2.93" y1="6.04" x2="9.38" y2="7.08"/>
      </g>
      <g id="POLYLINE-20" data-name="POLYLINE">
        <line class="cls-4" x1="6.26" y1="10.46" x2="10.14" y2="14.57"/>
      </g>
      <g id="POLYLINE-21" data-name="POLYLINE">
        <line class="cls-4" x1="9.38" y1="7.08" x2="16" y2="7.62"/>
      </g>
      <g id="POLYLINE-22" data-name="POLYLINE">
        <line class="cls-4" x1="10.14" y1="14.57" x2="12.84" y2="19.76"/>
      </g>
      <g id="POLYLINE-23" data-name="POLYLINE">
        <line class="cls-4" x1="12.84" y1="19.76" x2="15.04" y2="25.96"/>
      </g>
      <g id="POLYLINE-24" data-name="POLYLINE">
        <line class="cls-4" x1="16" y1="7.62" x2="22.62" y2="7.08"/>
      </g>
      <g id="POLYLINE-25" data-name="POLYLINE">
        <line class="cls-4" x1="16.96" y1="25.96" x2="19.16" y2="19.76"/>
      </g>
      <g id="POLYLINE-26" data-name="POLYLINE">
        <line class="cls-4" x1="19.16" y1="19.76" x2="21.86" y2="14.57"/>
      </g>
      <g id="POLYLINE-27" data-name="POLYLINE">
        <line class="cls-4" x1="21.86" y1="14.57" x2="25.74" y2="10.46"/>
      </g>
      <g id="POLYLINE-28" data-name="POLYLINE">
        <line class="cls-4" x1="22.62" y1="7.08" x2="29.07" y2="6.04"/>
      </g>
      <g id="POLYLINE-29" data-name="POLYLINE">
        <line class="cls-4" x1="25.74" y1="10.46" x2="30" y2="6.96"/>
      </g>
      <g id="POLYLINE-30" data-name="POLYLINE">
        <line class="cls-4" x1="29.07" y1="6.04" x2="29.3" y2="6.27"/>
      </g>
      <g id="POLYLINE-31" data-name="POLYLINE">
        <line class="cls-4" x1="29.3" y1="6.27" x2="29.53" y2="6.5"/>
      </g>
      <g id="POLYLINE-32" data-name="POLYLINE">
        <line class="cls-4" x1="29.77" y1="6.73" x2="30" y2="6.96"/>
      </g>
      <g id="POLYLINE-33" data-name="POLYLINE">
        <line class="cls-4" x1="15.04" y1="25.96" x2="16.96" y2="25.96"/>
      </g>
    </g>
    <g id="pattern_2">
      <polyline class="cls-1" points="10.14 14.57 11.06 12.12 11.99 10.46 13.4 9.04 16 7.62"/>
      <polyline class="cls-1" points="21.86 14.57 20.94 12.12 20.01 10.46 18.6 9.04 16 7.62"/>
      <polyline class="cls-1" points="21.86 14.57 18.57 15.55 16 15.82 13.57 15.55 10.14 14.57"/>
    </g>
    <g id="top">
      <circle class="cls-2" cx="29.53" cy="6.5" r="1"/>
      <circle class="cls-2" cx="2.47" cy="6.5" r="1"/>
      <circle class="cls-2" cx="16" cy="25.96" r="1"/>
    </g>
  </g>
</svg>