<?xml version="1.0" encoding="UTF-8"?>
<svg xmlns="http://www.w3.org/2000/svg" version="1.1" xmlns:xlink="http://www.w3.org/1999/xlink" viewBox="0 0 32 32">
  <defs>
    <style>
      .cls-1 {
        fill: url(#Linear_Gradient_10);
      }

      .cls-1, .cls-2, .cls-3, .cls-4, .cls-5 {
        fill-rule: evenodd;
      }

      .cls-1, .cls-2, .cls-3, .cls-5 {
        stroke: #000;
      }

      .cls-1, .cls-3 {
        stroke-miterlimit: 10;
      }

      .cls-2 {
        fill: #fff;
      }

      .cls-2, .cls-3 {
        stroke-linecap: round;
      }

      .cls-2, .cls-5 {
        stroke-linejoin: round;
      }

      .cls-3 {
        fill: url(#linear-gradient);
      }

      .cls-4 {
        fill: url(#Linear_Gradient_61);
        opacity: .75;
      }

      .cls-6 {
        fill: #0092d2;
      }

      .cls-5 {
        fill: none;
      }
    </style>
    <filter id="outer-glow-6" x="-33.16" y="2.44" width="34.32" height="27.12" filterUnits="userSpaceOnUse">
      <feOffset dx="0" dy="0"/>
      <feGaussianBlur result="blur" stdDeviation="1"/>
      <feFlood flood-color="#000" flood-opacity=".35"/>
      <feComposite in2="blur" operator="in"/>
      <feComposite in="SourceGraphic"/>
    </filter>
    <linearGradient id="Linear_Gradient_10" data-name="Linear Gradient 10" x1="12.02" y1="25.96" x2="11.94" y2="14.31" gradientUnits="userSpaceOnUse">
      <stop offset="0" stop-color="#e88a0d"/>
      <stop offset="0" stop-color="#e88d10"/>
      <stop offset=".09" stop-color="#eea926"/>
      <stop offset=".18" stop-color="#f3c037"/>
      <stop offset=".29" stop-color="#f7d245"/>
      <stop offset=".42" stop-color="#fade4f"/>
      <stop offset=".59" stop-color="#fbe555"/>
      <stop offset="1" stop-color="#fce857"/>
    </linearGradient>
    <linearGradient id="linear-gradient" x1="8.38" y1="2.63" x2="28.87" y2="23.13" gradientUnits="userSpaceOnUse">
      <stop offset="0" stop-color="#fff"/>
      <stop offset="1" stop-color="#ccc"/>
    </linearGradient>
    <linearGradient id="Linear_Gradient_61" data-name="Linear Gradient 61" x1="14.83" y1="27.17" x2="14.83" y2="18.5" gradientUnits="userSpaceOnUse">
      <stop offset="0" stop-color="#ffc924"/>
      <stop offset="1" stop-color="#faf5c4"/>
    </linearGradient>
  </defs>
  <!-- Generator: Adobe Illustrator 28.7.2, SVG Export Plug-In . SVG Version: 1.2.0 Build 154)  -->
  <g>
    <g id="RV-logo">
      <polygon class="cls-1" points="1.5 30.5 1.5 15 4 12.5 11 12.5 13 14.5 21.5 14.5 22.5 15.5 22.5 30.5 1.5 30.5"/>
      <polyline class="cls-3" points="30.5 7 30.5 21.5 9.5 21.5 9.5 1.5 25 1.5"/>
      <polygon class="cls-2" points="25.5 1.5 25.5 6.5 30.5 6.5 25.5 1.5"/>
      <g>
        <path class="cls-6" d="M16.32,13.97h-1.04v2.83h-1.93v-8h3.15c.95,0,1.69.21,2.23.63.53.42.8,1.02.8,1.78,0,.56-.11,1.02-.34,1.38-.23.37-.58.66-1.06.89l1.67,3.23v.08h-2.07l-1.41-2.83ZM15.27,12.48h1.22c.37,0,.64-.1.83-.29.19-.19.28-.46.28-.81s-.09-.62-.28-.81c-.19-.2-.46-.29-.82-.29h-1.22v2.2Z"/>
        <path class="cls-6" d="M23.69,14.62l1.59-5.82h2.15l-2.69,8h-2.11l-2.67-8h2.14l1.59,5.82Z"/>
      </g>
      <g>
        <polygon class="cls-4" points="1.5 30.5 6.83 18.5 28.17 18.5 22.83 30.5 1.5 30.5"/>
        <polygon class="cls-5" points="1.5 30.5 6.83 18.5 28.17 18.5 22.83 30.5 1.5 30.5"/>
      </g>
    </g>
  </g>
</svg>