<?xml version="1.0" encoding="UTF-8"?>
<svg xmlns="http://www.w3.org/2000/svg" xmlns:xlink="http://www.w3.org/1999/xlink" viewBox="0 0 32 32">
  <defs>
    <style>
      .cls-1 {
        fill: none;
        stroke: #000;
        stroke-miterlimit: 10;
      }

      .cls-2 {
        fill: url(#radial-gradient);
      }

      .cls-3 {
        filter: url(#outer-glow-2);
      }

      .cls-3, .cls-4 {
        fill: #fff;
      }

      .cls-4 {
        filter: url(#outer-glow-1);
      }
    </style>
    <filter id="outer-glow-1" x="-3.2" y="-1.6" width="38.4" height="35.76" filterUnits="userSpaceOnUse">
      <feOffset dx="0" dy="0"/>
      <feGaussianBlur result="blur" stdDeviation="2"/>
      <feFlood flood-color="#000" flood-opacity=".5"/>
      <feComposite in2="blur" operator="in"/>
      <feComposite in="SourceGraphic"/>
    </filter>
    <filter id="outer-glow-2" x="28.8" y="-1.6" width="38.4" height="35.76" filterUnits="userSpaceOnUse">
      <feOffset dx="0" dy="0"/>
      <feGaussianBlur result="blur-2" stdDeviation="2"/>
      <feFlood flood-color="#000" flood-opacity=".5"/>
      <feComposite in2="blur-2" operator="in"/>
      <feComposite in="SourceGraphic"/>
    </filter>
    <radialGradient id="radial-gradient" cx="16.34" cy="11.22" fx="16.34" fy="11.22" r="38.34" gradientUnits="userSpaceOnUse">
      <stop offset=".11" stop-color="#fff"/>
      <stop offset="1" stop-color="#000"/>
    </radialGradient>
  </defs>
  <g id="shadow">
    <polygon class="cls-4" points="3 6.52 3 6.52 3 6.52 16 4.56 29 6.52 29 6.52 29 6.52 29 19.92 15.99 28 15.99 28 15.99 28 3 19.92 3 6.52"/>
    <polygon class="cls-3" points="35 6.52 35 6.52 35 6.52 48 4.56 61 6.52 61 6.52 61 6.52 61 19.92 47.99 28 47.99 28 47.99 28 35 19.92 35 6.52"/>
  </g>
  <g id="RV-logo">
    <polygon class="cls-2" points="3 6.52 3 6.52 3 6.52 16 4.56 29 6.52 29 6.52 29 6.52 29 19.92 15.99 28 15.99 28 15.99 28 3 19.92 3 6.52"/>
    <g>
      <polygon class="cls-1" points="3 6.52 3 6.52 3 6.52 16 4.56 29 6.52 29 6.52 29 6.52 29 19.92 15.99 28 15.99 28 15.99 28 3 19.92 3 6.52"/>
      <path d="M16.35,12.13l-.36,15.87-.39-15.87c0-.5.76-.5.75,0h0Z"/>
      <path d="M16,4.56l.35,7.57c0,.21-.15.38-.36.39-.22.01-.41-.17-.39-.39,0,0,.4-7.56.4-7.56h0Z"/>
      <path d="M16.18,12.45l-13.18,7.47,12.79-8.12c.42-.27.82.4.39.64h0Z"/>
      <path d="M29,6.52l-12.86,5.95c-.19.09-.41,0-.5-.18-.09-.19,0-.43.2-.51,0,0,13.16-5.27,13.16-5.27h0Z"/>
      <path d="M15.84,12.48L3,6.52l13.14,5.27c.46.18.15.9-.3.69h0Z"/>
      <path d="M29,19.92l-13.2-7.46c-.18-.1-.24-.33-.14-.51.1-.19.35-.25.53-.13,0,0,12.81,8.11,12.81,8.11h0Z"/>
    </g>
  </g>
</svg>