<?xml version="1.0" encoding="UTF-8"?>
<svg xmlns="http://www.w3.org/2000/svg" xmlns:xlink="http://www.w3.org/1999/xlink" viewBox="0 0 32 32">
  <defs>
    <style>
      .cls-1 {
        clip-path: url(#clippath);
      }

      .cls-2, .cls-3, .cls-4, .cls-5, .cls-6 {
        stroke-width: 0px;
      }

      .cls-2, .cls-7 {
        fill: none;
      }

      .cls-3 {
        fill: url(#radial-gradient);
      }

      .cls-4 {
        fill: #000;
      }

      .cls-7 {
        stroke: #000;
        stroke-miterlimit: 10;
      }

      .cls-5 {
        filter: url(#drop-shadow-3);
      }

      .cls-5, .cls-6 {
        fill: #fff;
      }

      .cls-6 {
        filter: url(#outer-glow-1);
      }
    </style>
    <filter id="outer-glow-1" filterUnits="userSpaceOnUse">
      <feOffset dx="0" dy="0"/>
      <feGaussianBlur result="blur" stdDeviation="2"/>
      <feFlood flood-color="#000" flood-opacity=".5"/>
      <feComposite in2="blur" operator="in"/>
      <feComposite in="SourceGraphic"/>
    </filter>
    <radialGradient id="radial-gradient" cx="16.37" cy="11.7" fx="16.37" fy="11.7" r="35.99" gradientUnits="userSpaceOnUse">
      <stop offset=".11" stop-color="#fff"/>
      <stop offset="1" stop-color="#000"/>
    </radialGradient>
    <clipPath id="clippath">
      <rect class="cls-2" x="32" y="0" width="32" height="32"/>
    </clipPath>
    <filter id="drop-shadow-3" filterUnits="userSpaceOnUse">
      <feOffset dx="0" dy="0"/>
      <feGaussianBlur result="blur-2" stdDeviation="2"/>
      <feFlood flood-color="#000" flood-opacity=".5"/>
      <feComposite in2="blur-2" operator="in"/>
      <feComposite in="SourceGraphic"/>
    </filter>
  </defs>
  <g id="bounding_box" data-name="bounding box">
    <rect class="cls-2" y="0" width="32" height="32"/>
  </g>
  <g id="RV-logo">
    <polygon class="cls-6" points="2 6.95 2.6 6.56 2.93 6.04 15.98 7.09 29.07 6.04 29.4 6.55 30 6.95 22.68 14.92 16.96 25.95 15.98 25.96 15.04 25.95 9.29 14.91 2 6.95"/>
    <polygon class="cls-3" points="2 6.95 2.6 6.56 2.93 6.04 15.98 7.09 29.07 6.04 29.4 6.55 30 6.95 22.68 14.92 16.96 25.95 15.98 25.96 15.04 25.95 9.29 14.91 2 6.95"/>
    <g>
      <polygon class="cls-7" points="2 6.95 2.6 6.56 2.93 6.04 15.98 7.09 29.07 6.04 29.4 6.55 30 6.95 22.68 14.92 16.96 25.95 15.98 25.96 15.04 25.95 9.29 14.91 2 6.95"/>
      <path class="cls-4" d="M16.35,12.13l-.38,13.83-.38-13.83c-.01-.5.76-.5.75,0h0Z"/>
      <path class="cls-4" d="M15.98,7.09l.38,5.03c.02.21-.14.39-.35.4-.23.02-.42-.18-.4-.4,0,0,.37-5.03.37-5.03h0Z"/>
      <path class="cls-4" d="M16.13,12.47l-6.84,2.44,6.55-3.13c.47-.22.77.51.29.69h0Z"/>
      <path class="cls-4" d="M29.4,6.55l-13.26,5.93c-.19.08-.41,0-.5-.19-.09-.2,0-.43.21-.5l13.55-5.23h0Z"/>
      <path class="cls-4" d="M15.85,12.48L2.6,6.56l13.54,5.23c.47.18.17.89-.29.69h0Z"/>
      <path class="cls-4" d="M22.68,14.92l-6.83-2.44c-.2-.07-.3-.28-.23-.48.07-.21.32-.31.52-.21l6.54,3.13h0Z"/>
    </g>
    <g class="cls-1">
      <polygon class="cls-5" points="48.48 25.96 48.96 25.96 51.16 19.76 53.86 14.57 57.74 10.46 62 6.96 61.77 6.73 61.53 6.5 61.3 6.27 61.07 6.04 54.62 7.08 48 7.62 41.38 7.08 34.93 6.04 34.7 6.27 34.47 6.5 34.23 6.73 34 6.96 38.26 10.46 42.14 14.57 44.84 19.76 47.04 25.96 47.52 25.96 48.48 25.96"/>
    </g>
  </g>
</svg>