<?xml version="1.0" encoding="UTF-8"?>
<svg xmlns="http://www.w3.org/2000/svg" version="1.1" xmlns:xlink="http://www.w3.org/1999/xlink" viewBox="0 0 32 32">
  <defs>
    <style>
      .cls-1 {
        fill: none;
      }

      .cls-1, .cls-2 {
        stroke: #000;
        stroke-miterlimit: 10;
      }

      .cls-2, .cls-3, .cls-4, .cls-5 {
        fill: #fff;
      }

      .cls-6 {
        fill: url(#radial-gradient);
      }

      .cls-3 {
        filter: url(#outer-glow-3);
      }

      .cls-7 {
        fill: url(#Linear_Gradient_7);
      }

      .cls-4 {
        filter: url(#outer-glow-2);
      }

      .cls-5 {
        filter: url(#outer-glow-1);
      }
    </style>
    <filter id="outer-glow-1" x="-35.2" y="-1.6" width="38.4" height="35.76" filterUnits="userSpaceOnUse">
      <feOffset dx="0" dy="0"/>
      <feGaussianBlur result="blur" stdDeviation="2"/>
      <feFlood flood-color="#000" flood-opacity=".5"/>
      <feComposite in2="blur" operator="in"/>
      <feComposite in="SourceGraphic"/>
    </filter>
    <filter id="outer-glow-2" x="-3.2" y="-1.6" width="38.4" height="35.76" filterUnits="userSpaceOnUse">
      <feOffset dx="0" dy="0"/>
      <feGaussianBlur result="blur-2" stdDeviation="2"/>
      <feFlood flood-color="#000" flood-opacity=".5"/>
      <feComposite in2="blur-2" operator="in"/>
      <feComposite in="SourceGraphic"/>
    </filter>
    <filter id="outer-glow-3" x="28.88" y="-1.52" width="38.16" height="35.52" filterUnits="userSpaceOnUse">
      <feOffset dx="0" dy="0"/>
      <feGaussianBlur result="blur-3" stdDeviation="2"/>
      <feFlood flood-color="#000" flood-opacity=".5"/>
      <feComposite in2="blur-3" operator="in"/>
      <feComposite in="SourceGraphic"/>
    </filter>
    <radialGradient id="radial-gradient" cx="16.34" cy="11.22" fx="16.34" fy="11.22" r="38.34" gradientUnits="userSpaceOnUse">
      <stop offset=".11" stop-color="#fff"/>
      <stop offset="1" stop-color="#000"/>
    </radialGradient>
    <linearGradient id="Linear_Gradient_7" data-name="Linear Gradient 7" x1="19.61" y1="2.5" x2="29.39" y2="2.5" gradientUnits="userSpaceOnUse">
      <stop offset="0" stop-color="#2e4ab5"/>
      <stop offset="1" stop-color="#bdc9fa"/>
    </linearGradient>
  </defs>
  <!-- Generator: Adobe Illustrator 28.7.2, SVG Export Plug-In . SVG Version: 1.2.0 Build 154)  -->
  <g>
    <g id="shadow">
      <polygon class="cls-5" points="-29 6.52 -29 6.52 -29 6.52 -16 4.56 -3 6.52 -3 6.52 -3 6.52 -3 19.92 -16.01 28 -16.01 28 -16.01 28 -29 19.92 -29 6.52"/>
      <polygon class="cls-4" points="3 6.52 3 6.52 3 6.52 16 4.56 29 6.52 29 6.52 29 6.52 29 19.92 15.99 28 15.99 28 15.99 28 3 19.92 3 6.52"/>
      <polygon class="cls-3" points="35 6.52 35 6.52 35 6.52 48 4.56 61 6.52 61 6.52 61 6.52 61 19.92 47.99 28 47.99 28 47.99 28 35 19.92 35 6.52"/>
    </g>
    <g id="RV-logo">
      <polygon class="cls-6" points="3 6.52 3 6.52 3 6.52 16 4.56 29 6.52 29 6.52 29 6.52 29 19.92 15.99 28 15.99 28 15.99 28 3 19.92 3 6.52"/>
      <g>
        <polygon class="cls-1" points="3 6.52 3 6.52 3 6.52 16 4.56 29 6.52 29 6.52 29 6.52 29 19.92 15.99 28 15.99 28 15.99 28 3 19.92 3 6.52"/>
        <path d="M16.35,12.13l-.36,15.87-.39-15.87c0-.5.76-.5.75,0h0Z"/>
        <path d="M16,4.56l.35,7.57c0,.21-.15.38-.36.39-.22.01-.41-.17-.39-.39,0,0,.4-7.56.4-7.56h0Z"/>
        <path d="M16.18,12.45l-13.18,7.47,12.79-8.12c.42-.27.82.4.39.64h0Z"/>
        <path d="M29,6.52l-12.86,5.95c-.19.09-.41,0-.5-.18-.09-.19,0-.43.2-.51,0,0,13.16-5.27,13.16-5.27h0Z"/>
        <path d="M15.84,12.48L3,6.52l13.14,5.27c.46.18.15.9-.3.69h0Z"/>
        <path d="M29,19.92l-13.2-7.46c-.18-.1-.24-.33-.14-.51.1-.19.35-.25.53-.13,0,0,12.81,8.11,12.81,8.11h0Z"/>
      </g>
    </g>
    <g id="pattern_2">
      <g>
        <polygon points="9.74 9.6 3 13.22 9.49 9.17 9.74 9.6 9.74 9.6"/>
        <polygon points="9.5 5.54 9.87 9.37 9.37 9.39 9.5 5.54 9.5 5.54"/>
        <polygon points="22.51 9.17 29 13.22 22.26 9.6 22.51 9.17 22.51 9.17"/>
        <polygon points="22.5 5.54 22.64 9.39 22.14 9.37 22.5 5.54 22.5 5.54"/>
        <polygon points="9.5 23.96 15.87 19.84 16.13 20.27 9.5 23.96 9.5 23.96"/>
        <polygon points="22.5 23.96 15.87 20.27 16.13 19.84 22.5 23.96 22.5 23.96"/>
        <polygon points="9.72 15.9 15.99 28 9.28 16.13 9.72 15.9 9.72 15.9"/>
        <polygon points="3 6.52 9.71 15.87 9.3 16.16 3 6.52 3 6.52"/>
        <polygon points="22.71 16.13 16.01 28 22.27 15.9 22.71 16.13 22.71 16.13"/>
        <polygon points="29 6.52 22.7 16.16 22.29 15.87 29 6.52 29 6.52"/>
        <polygon points="15.97 7.9 29 6.52 16.03 8.39 15.97 7.9 15.97 7.9"/>
        <polygon points="3 6.52 16.03 7.9 15.97 8.39 3 6.52 3 6.52"/>
      </g>
    </g>
    <g id="top">
      <rect class="cls-2" x="18.5" y="1.5" width="12" height="18"/>
      <line class="cls-1" x1="19" y1="3.5" x2="30" y2="3.5"/>
      <line class="cls-1" x1="22" y1="7.5" x2="27" y2="7.5"/>
      <line class="cls-1" x1="22" y1="9.5" x2="25" y2="9.5"/>
      <line class="cls-1" x1="22" y1="11.5" x2="26" y2="11.5"/>
      <line class="cls-1" x1="24" y1="13.5" x2="28" y2="13.5"/>
      <line class="cls-1" x1="24" y1="15.5" x2="27" y2="15.5"/>
      <line class="cls-1" x1="24" y1="17.5" x2="29" y2="17.5"/>
      <rect class="cls-7" x="19" y="2" width="11" height="1"/>
      <line class="cls-1" x1="20" y1="5.5" x2="26" y2="5.5"/>
    </g>
  </g>
</svg>